<svg width="70" height="70" viewBox="0 0 70 70" fill="none" xmlns="http://www.w3.org/2000/svg">
<g clip-path="url(#clip0)">
<path d="M13.643 12.3043H22.6953V3.25204L13.643 12.3043Z" fill="white"/>
<path d="M12.4414 57.5582H57.5586V-0.000366211H26.7969V16.4059H12.4414V57.5582ZM35 12.3043H47.3047V16.4059H35V12.3043ZM18.5938 20.5074H51.4062V24.609H18.5938V20.5074ZM18.5938 28.7106H51.4062V32.8121H18.5938V28.7106ZM18.5938 36.9137H51.4062V41.0153H18.5938V36.9137ZM18.5938 45.2535H30.8984V49.3551H18.5938V45.2535Z" fill="white"/>
<path d="M2.1875 49.3551H8.33984V57.5582H2.1875V49.3551Z" fill="white"/>
<path d="M61.6602 49.3551H67.8125V57.5582H61.6602V49.3551Z" fill="white"/>
<path d="M2.1875 61.6598H67.8125V69.9996H2.1875V61.6598Z" fill="white"/>
</g>
<defs>
<clipPath id="clip0">
<rect width="70" height="70" fill="white"/>
</clipPath>
</defs>
</svg>
