<svg width="128" height="14" viewBox="0 0 128 14" fill="none" xmlns="http://www.w3.org/2000/svg">
<path d="M6.11044 11H1.39244V1.662H5.98444C6.8151 1.662 7.46377 1.89067 7.93044 2.348C8.40644 2.796 8.64444 3.36067 8.64444 4.042C8.64444 4.602 8.48577 5.078 8.16844 5.47C7.86044 5.85267 7.47777 6.09067 7.02044 6.184C7.52444 6.25867 7.9491 6.52 8.29444 6.968C8.6491 7.40667 8.82644 7.91067 8.82644 8.48C8.82644 9.22667 8.58377 9.83333 8.09844 10.3C7.62244 10.7667 6.95977 11 6.11044 11ZM5.64844 5.526C6.0591 5.526 6.3811 5.414 6.61444 5.19C6.84777 4.966 6.96444 4.67667 6.96444 4.322C6.96444 3.958 6.84777 3.664 6.61444 3.44C6.3811 3.216 6.0591 3.104 5.64844 3.104H3.03044V5.526H5.64844ZM5.71844 9.558C6.16644 9.558 6.51644 9.446 6.76844 9.222C7.02044 8.98867 7.14644 8.66667 7.14644 8.256C7.14644 7.892 7.02044 7.58867 6.76844 7.346C6.51644 7.094 6.16644 6.968 5.71844 6.968H3.03044V9.558H5.71844ZM14.9506 11.168C13.5506 11.168 12.3839 10.72 11.4506 9.824C10.5172 8.91867 10.0506 7.75667 10.0506 6.338C10.0506 4.91933 10.5172 3.762 11.4506 2.866C12.3839 1.96067 13.5506 1.508 14.9506 1.508C16.5746 1.508 17.8252 2.208 18.7026 3.608L17.3026 4.322C17.0692 3.92067 16.7379 3.594 16.3086 3.342C15.8886 3.09 15.4359 2.964 14.9506 2.964C14.0266 2.964 13.2566 3.28133 12.6406 3.916C12.0339 4.55067 11.7306 5.358 11.7306 6.338C11.7306 7.318 12.0339 8.12533 12.6406 8.76C13.2566 9.39467 14.0266 9.712 14.9506 9.712C15.4452 9.712 15.9026 9.586 16.3226 9.334C16.7426 9.082 17.0692 8.75533 17.3026 8.354L18.7026 9.068C17.8066 10.468 16.5559 11.168 14.9506 11.168ZM26.4115 11H20.0135V1.662H26.4115V3.104H21.6515V5.526H26.3135V6.968H21.6515V9.558H26.4115V11ZM39.8233 11H38.1853V6.926H33.3273V11H31.6893V1.662H33.3273V5.484H38.1853V1.662H39.8233V11ZM49.5905 9.81C48.6945 10.7153 47.5512 11.168 46.1605 11.168C44.7698 11.168 43.6265 10.7153 42.7305 9.81C41.8345 8.89533 41.3865 7.738 41.3865 6.338C41.3865 4.938 41.8345 3.78533 42.7305 2.88C43.6265 1.96533 44.7698 1.508 46.1605 1.508C47.5512 1.508 48.6945 1.96533 49.5905 2.88C50.4865 3.78533 50.9345 4.938 50.9345 6.338C50.9345 7.738 50.4865 8.89533 49.5905 9.81ZM46.1605 9.712C47.0845 9.712 47.8312 9.39467 48.4005 8.76C48.9698 8.116 49.2545 7.30867 49.2545 6.338C49.2545 5.358 48.9698 4.55067 48.4005 3.916C47.8312 3.28133 47.0845 2.964 46.1605 2.964C45.2272 2.964 44.4758 3.28133 43.9065 3.916C43.3465 4.55067 43.0665 5.358 43.0665 6.338C43.0665 7.318 43.3465 8.12533 43.9065 8.76C44.4758 9.39467 45.2272 9.712 46.1605 9.712ZM57.2296 11H52.5116V1.662H57.1036C57.9342 1.662 58.5829 1.89067 59.0496 2.348C59.5256 2.796 59.7636 3.36067 59.7636 4.042C59.7636 4.602 59.6049 5.078 59.2876 5.47C58.9796 5.85267 58.5969 6.09067 58.1396 6.184C58.6436 6.25867 59.0682 6.52 59.4136 6.968C59.7682 7.40667 59.9456 7.91067 59.9456 8.48C59.9456 9.22667 59.7029 9.83333 59.2176 10.3C58.7416 10.7667 58.0789 11 57.2296 11ZM56.7676 5.526C57.1782 5.526 57.5002 5.414 57.7336 5.19C57.9669 4.966 58.0836 4.67667 58.0836 4.322C58.0836 3.958 57.9669 3.664 57.7336 3.44C57.5002 3.216 57.1782 3.104 56.7676 3.104H54.1496V5.526H56.7676ZM56.8376 9.558C57.2856 9.558 57.6356 9.446 57.8876 9.222C58.1396 8.98867 58.2656 8.66667 58.2656 8.256C58.2656 7.892 58.1396 7.58867 57.8876 7.346C57.6356 7.094 57.2856 6.968 56.8376 6.968H54.1496V9.558H56.8376ZM69.3737 9.81C68.4777 10.7153 67.3344 11.168 65.9437 11.168C64.553 11.168 63.4097 10.7153 62.5137 9.81C61.6177 8.89533 61.1697 7.738 61.1697 6.338C61.1697 4.938 61.6177 3.78533 62.5137 2.88C63.4097 1.96533 64.553 1.508 65.9437 1.508C67.3344 1.508 68.4777 1.96533 69.3737 2.88C70.2697 3.78533 70.7177 4.938 70.7177 6.338C70.7177 7.738 70.2697 8.89533 69.3737 9.81ZM65.9437 9.712C66.8677 9.712 67.6144 9.39467 68.1837 8.76C68.753 8.116 69.0377 7.30867 69.0377 6.338C69.0377 5.358 68.753 4.55067 68.1837 3.916C67.6144 3.28133 66.8677 2.964 65.9437 2.964C65.0104 2.964 64.259 3.28133 63.6897 3.916C63.1297 4.55067 62.8497 5.358 62.8497 6.338C62.8497 7.318 63.1297 8.12533 63.6897 8.76C64.259 9.39467 65.0104 9.712 65.9437 9.712ZM76.7748 11.168C75.3748 11.168 74.2081 10.72 73.2748 9.824C72.3414 8.91867 71.8748 7.75667 71.8748 6.338C71.8748 4.91933 72.3414 3.762 73.2748 2.866C74.2081 1.96067 75.3748 1.508 76.7748 1.508C78.3988 1.508 79.6494 2.208 80.5268 3.608L79.1268 4.322C78.8934 3.92067 78.5621 3.594 78.1328 3.342C77.7128 3.09 77.2601 2.964 76.7748 2.964C75.8508 2.964 75.0808 3.28133 74.4648 3.916C73.8581 4.55067 73.5548 5.358 73.5548 6.338C73.5548 7.318 73.8581 8.12533 74.4648 8.76C75.0808 9.39467 75.8508 9.712 76.7748 9.712C77.2694 9.712 77.7268 9.586 78.1468 9.334C78.5668 9.082 78.8934 8.75533 79.1268 8.354L80.5268 9.068C79.6308 10.468 78.3801 11.168 76.7748 11.168ZM85.7018 11H84.0638V3.104H81.2358V1.662H88.5298V3.104H85.7018V11ZM91.4998 11H89.9178V1.662H91.5558V8.144L96.3298 1.662H98.0098V11H96.3718V4.336L91.4998 11Z" fill="#40A8E4"/>
<path d="M118 5.42187L118 6.56978L127.442 6.57876L128 5.99775L127.442 5.42187L118 5.42187Z" fill="#40A8E4"/>
<path d="M122.412 10.1883L123.192 11L128 5.99775L127.22 5.18606L122.412 10.1883Z" fill="#40A8E4"/>
<path d="M122.412 1.81169L123.192 1L127.998 6.00032L127.218 6.81201L122.412 1.81169Z" fill="#40A8E4"/>
</svg>
