<svg width="144" height="14" viewBox="0 0 144 14" fill="none" xmlns="http://www.w3.org/2000/svg">
<path d="M5.79989 11H1.08189V1.662H5.67389C6.50456 1.662 7.15322 1.89067 7.61989 2.348C8.09589 2.796 8.33389 3.36067 8.33389 4.042C8.33389 4.602 8.17522 5.078 7.85789 5.47C7.54989 5.85267 7.16722 6.09067 6.70989 6.184C7.21389 6.25867 7.63856 6.52 7.98389 6.968C8.33856 7.40667 8.51589 7.91067 8.51589 8.48C8.51589 9.22667 8.27322 9.83333 7.78789 10.3C7.31189 10.7667 6.64922 11 5.79989 11ZM5.33789 5.526C5.74856 5.526 6.07056 5.414 6.30389 5.19C6.53722 4.966 6.65389 4.67667 6.65389 4.322C6.65389 3.958 6.53722 3.664 6.30389 3.44C6.07056 3.216 5.74856 3.104 5.33789 3.104H2.71989V5.526H5.33789ZM5.40789 9.558C5.85589 9.558 6.20589 9.446 6.45789 9.222C6.70989 8.98867 6.83589 8.66667 6.83589 8.256C6.83589 7.892 6.70989 7.58867 6.45789 7.346C6.20589 7.094 5.85589 6.968 5.40789 6.968H2.71989V9.558H5.40789ZM14.64 11.168C13.24 11.168 12.0733 10.72 11.14 9.824C10.2067 8.91867 9.74002 7.75667 9.74002 6.338C9.74002 4.91933 10.2067 3.762 11.14 2.866C12.0733 1.96067 13.24 1.508 14.64 1.508C16.264 1.508 17.5147 2.208 18.392 3.608L16.992 4.322C16.7587 3.92067 16.4273 3.594 15.998 3.342C15.578 3.09 15.1253 2.964 14.64 2.964C13.716 2.964 12.946 3.28133 12.33 3.916C11.7233 4.55067 11.42 5.358 11.42 6.338C11.42 7.318 11.7233 8.12533 12.33 8.76C12.946 9.39467 13.716 9.712 14.64 9.712C15.1347 9.712 15.592 9.586 16.012 9.334C16.432 9.082 16.7587 8.75533 16.992 8.354L18.392 9.068C17.496 10.468 16.2453 11.168 14.64 11.168ZM26.101 11H19.703V1.662H26.101V3.104H21.341V5.526H26.003V6.968H21.341V9.558H26.101V11ZM32.9608 11H31.3788V1.662H33.0168V8.144L37.7908 1.662H39.4708V11H37.8328V4.336L32.9608 11ZM49.5889 11H47.9509V6.926H43.0929V11H41.4549V1.662H43.0929V5.484H47.9509V1.662H49.5889V11ZM56.0521 11.168C54.6521 11.168 53.4855 10.72 52.5521 9.824C51.6188 8.91867 51.1521 7.75667 51.1521 6.338C51.1521 4.91933 51.6188 3.762 52.5521 2.866C53.4855 1.96067 54.6521 1.508 56.0521 1.508C57.6761 1.508 58.9268 2.208 59.8041 3.608L58.4041 4.322C58.1708 3.92067 57.8395 3.594 57.4101 3.342C56.9901 3.09 56.5375 2.964 56.0521 2.964C55.1281 2.964 54.3581 3.28133 53.7421 3.916C53.1355 4.55067 52.8321 5.358 52.8321 6.338C52.8321 7.318 53.1355 8.12533 53.7421 8.76C54.3581 9.39467 55.1281 9.712 56.0521 9.712C56.5468 9.712 57.0041 9.586 57.4241 9.334C57.8441 9.082 58.1708 8.75533 58.4041 8.354L59.8041 9.068C58.9081 10.468 57.6575 11.168 56.0521 11.168ZM64.9791 11H63.3411V3.104H60.5131V1.662H67.8071V3.104H64.9791V11ZM70.7772 11H69.1952V1.662H70.8332V8.144L75.6072 1.662H77.2872V11H75.6492V4.336L70.7772 11ZM83.1353 11H81.4973V3.104H78.6693V1.662H85.9633V3.104H83.1353V11ZM88.4714 11.168C88.0794 11.168 87.7014 11.1027 87.3374 10.972C86.9734 10.8413 86.7121 10.692 86.5534 10.524L87.1414 9.18C87.5428 9.53467 87.9488 9.712 88.3594 9.712C88.7234 9.712 89.0081 9.628 89.2134 9.46C89.4281 9.28267 89.6521 8.97 89.8854 8.522L86.3714 1.662H88.2334L90.8094 7.108L93.3854 1.662H95.2474L91.3554 9.25C91.0288 9.88467 90.6508 10.3653 90.2214 10.692C89.7921 11.0093 89.2088 11.168 88.4714 11.168ZM100.129 11H98.4915V3.104H95.6635V1.662H102.957V3.104H100.129V11ZM104.346 1.662H105.984V5.148H108.448C109.39 5.148 110.132 5.43267 110.674 6.002C111.224 6.562 111.5 7.25267 111.5 8.074C111.5 8.90467 111.224 9.6 110.674 10.16C110.132 10.72 109.39 11 108.448 11H104.346V1.662ZM108.224 6.59H105.984V9.558H108.224C108.69 9.558 109.073 9.42267 109.372 9.152C109.67 8.88133 109.82 8.522 109.82 8.074C109.82 7.626 109.67 7.26667 109.372 6.996C109.073 6.72533 108.69 6.59 108.224 6.59ZM114.006 11H112.368V1.662H114.006V11Z" fill="#40A8E4"/>
<path d="M134 5.42187L134 6.56978L143.442 6.57876L144 5.99775L143.442 5.42187L134 5.42187Z" fill="#40A8E4"/>
<path d="M138.412 10.1883L139.192 11L144 5.99775L143.22 5.18606L138.412 10.1883Z" fill="#40A8E4"/>
<path d="M138.412 1.81169L139.192 1L143.998 6.00032L143.218 6.81201L138.412 1.81169Z" fill="#40A8E4"/>
</svg>
