<svg width="1920" height="768" viewBox="0 0 1920 768" fill="none" xmlns="http://www.w3.org/2000/svg">
<mask id="mask0" mask-type="alpha" maskUnits="userSpaceOnUse" x="0" y="0" width="1920" height="768">
<rect y="-6.10352e-05" width="1920" height="768" fill="#C4C4C4"/>
</mask>
<g mask="url(#mask0)">
<path opacity="0.1" fill-rule="evenodd" clip-rule="evenodd" d="M1466.47 -509.675C1461.99 -508.641 1452.46 -504.157 1447.3 -500.657C1445.96 -499.749 1446 -499.684 1448.81 -498.477C1459.7 -493.784 1464.06 -490.323 1465.88 -484.936C1467.71 -479.547 1463.83 -476.521 1453.58 -475.317C1437.68 -473.45 1434.66 -471.42 1431.58 -460.496C1429.48 -453.027 1427.74 -451.185 1422.54 -450.899C1419.18 -450.715 1417.62 -452.131 1416.79 -456.111C1415.73 -461.23 1410.78 -457.78 1410.28 -451.566C1410.08 -449.166 1409.96 -449.105 1405.14 -449.067C1398.16 -449.011 1395.41 -451.391 1396.9 -456.213C1397.49 -458.115 1397.42 -458.619 1396.27 -461.01C1393.8 -466.142 1390.98 -466.103 1387.11 -460.883C1384.29 -457.075 1383.77 -450.956 1386.06 -448.424C1387.5 -446.828 1386.52 -444.011 1381.76 -436.061C1376.6 -427.45 1376.21 -423.315 1378.9 -405.474C1378.99 -404.884 1379.07 -401.93 1379.08 -398.91L1379.09 -393.42L1379.75 -392.172C1380.47 -390.819 1380.87 -390.541 1383.3 -389.742C1385.72 -388.949 1386.38 -387.886 1386.38 -384.758C1386.38 -379.498 1385.01 -378.331 1378.49 -378.009C1368.14 -377.498 1365.25 -371.658 1372.07 -365.027C1376.44 -360.766 1376.89 -358.069 1373.58 -355.828C1372.24 -354.914 1371.94 -354.572 1371.21 -353.057C1370.23 -351.016 1368.93 -349.755 1366.33 -348.324C1363.43 -346.729 1363.15 -344.472 1365.12 -338.635C1366.3 -335.149 1366.31 -335.087 1366.55 -330.733C1366.88 -324.864 1366.98 -324.058 1367.53 -323.15C1368.3 -321.884 1370.37 -321.097 1374.44 -320.519C1381.77 -319.477 1383.08 -318.154 1389.64 -305.219C1399.52 -285.741 1400.07 -279.356 1393.24 -263.327C1389.08 -253.547 1388.56 -250.474 1389.34 -239.99C1390.63 -222.409 1389.28 -219.047 1376.47 -208.035C1363.26 -196.676 1360.44 -190.694 1363.08 -179.542C1365.47 -169.403 1363.98 -165.669 1357.8 -166.343C1349.94 -167.202 1344.96 -162.968 1334.45 -146.469C1328.71 -137.451 1327.65 -136.456 1323.78 -136.455C1318.68 -136.454 1314.91 -135.544 1310.62 -133.278C1302.51 -128.992 1301.32 -125.239 1306.6 -120.517C1313.5 -114.342 1314.69 -111.676 1312.57 -107.095C1311.42 -104.593 1305.65 -98.9368 1302.95 -97.6604C1300.03 -96.2812 1297.24 -92.6441 1293.88 -85.8291C1290.56 -79.1103 1290.17 -76.9297 1291.48 -72.6028C1293.38 -66.3676 1293.53 -65.1089 1292.91 -60.4788C1292.36 -56.3963 1292.53 -55.4214 1294.33 -52.2648C1296.2 -49.0022 1296.35 -46.9322 1295.07 -42.165C1294.73 -40.9195 1294.07 -38.4503 1293.59 -36.6779C1290.87 -26.6008 1294.59 -15.9774 1304.36 -5.92053C1313.13 3.09601 1319.95 6.26929 1333.45 7.61011C1351.75 9.42706 1353.24 10.5416 1354.25 23.2366C1354.71 28.9235 1354.97 30.0972 1357.23 36.8427C1359.15 42.5465 1359.88 45.7174 1359.88 48.4021C1359.88 49.1996 1360.05 52.1337 1360.25 54.9225C1361.02 65.2772 1360.57 66.084 1354.03 66.0836C1346.6 66.0829 1344.23 65.3095 1344.64 63.017C1344.97 61.1813 1344.73 60.9252 1342.64 60.8935C1339.79 60.8503 1338.64 62.1667 1338 66.2369C1336.84 73.5844 1336.21 74.718 1331.38 78.2436C1324.94 82.9322 1324.07 85.9026 1326.13 96.0375C1328.42 107.269 1331.51 110.05 1341.16 109.542C1344.63 109.359 1345.31 109.537 1345.31 110.618C1345.31 114.428 1347.87 122.057 1353.08 133.756C1358.25 145.389 1358.97 147.596 1358.96 151.778C1358.95 159.867 1354.38 165.526 1340.06 175.225C1329.91 182.098 1328.24 186.097 1330.77 197.414C1331.16 199.17 1331.55 201.436 1331.63 202.45C1332.42 212.754 1316.57 223.875 1307.21 219.588C1303.08 217.699 1302.03 215.009 1302.79 208.351C1303.42 202.92 1302.12 201.281 1296.61 200.572C1291.64 199.932 1283.38 201.184 1279.96 203.097C1278.13 204.122 1278.09 203.473 1279.55 196.39C1280.27 192.9 1280.38 191.904 1280.38 188.985C1280.38 185.053 1280.61 185.416 1277.39 184.235C1272.71 182.518 1270.8 181.971 1266.16 181.023C1254.6 178.657 1250.35 175.619 1244.57 165.574C1241.62 160.469 1237.35 148.884 1236.48 143.662C1236.05 141.062 1235.88 140.802 1233.68 139.337C1229.12 136.304 1226.21 135.342 1221.53 135.321L1218.43 135.308L1218.3 139.485C1218.14 144.998 1217.96 145.382 1214.83 146.958C1211.76 148.502 1211.11 148.612 1203.75 148.809C1192.48 149.11 1191.13 149.948 1189.57 157.627C1187.67 167.023 1188.38 174.163 1191.93 181.261C1200.14 197.656 1198.34 209.417 1185.9 220.635C1183.26 223.017 1180.97 225.576 1176.3 231.386C1166.13 244.019 1161.51 246.704 1149.8 246.773C1142.73 246.815 1142.41 246.862 1140.1 248.218C1136.99 250.038 1135.72 252.942 1134.18 261.767C1132.73 270.075 1131.8 271.092 1121.77 275.46C1110.71 280.274 1108.97 282.903 1110.18 293.023C1111.71 305.908 1109.74 307.875 1094.45 308.735C1091.87 308.88 1089.54 309.04 1089.28 309.09C1088.77 309.187 1088.56 327.012 1089.02 330.448C1089.68 335.324 1091.47 338.396 1094.75 340.245C1096.44 341.201 1096.29 340.788 1096.69 345.301C1097.63 355.991 1096.44 359.993 1091.8 361.737C1087.48 363.362 1084.49 362.493 1078.35 357.822C1074.2 354.671 1072.25 353.762 1069.13 353.54C1068.13 353.469 1068.06 353.324 1067.56 350.499C1065.88 340.911 1059.41 330.054 1051.75 323.985C1049.57 322.255 1049.54 322.217 1049.53 321.172C1049.53 320.545 1049.27 320.083 1048.33 319.054C1045.75 316.231 1045.17 314.007 1044.77 305.384C1044.28 294.836 1043.26 294.068 1029.83 294.07C1021.97 294.072 1016.3 294.619 1012.51 295.742C1009.52 296.632 1008.03 299.939 1007.05 307.925C1006.79 310.006 1006.41 313.155 1006.19 314.922C1004.68 327.346 1001.5 330.206 992.234 327.461C990.593 326.975 987.8 326.144 986.027 325.616C980.273 323.899 973.217 324.791 970.09 327.629C968.103 329.432 967.485 329.426 963.932 327.567C959.354 325.171 959.026 325.13 944.018 325.05C930.307 324.978 929.394 324.913 922.883 323.533C916.866 322.258 915.445 322.049 912.541 322.009L909.992 321.974L908.995 324.976C908.447 326.627 907.28 331.187 906.403 335.11C903.897 346.317 902.647 349.735 898.852 355.75C893.02 364.994 885.772 378.66 881.127 389.169C873.754 405.851 873.891 409.218 882.196 415.372C887.047 418.967 887.471 421.049 884.934 428.793C882.922 434.932 882.932 436.668 885.056 449.083C887.021 460.576 890.314 467.013 894.594 467.73C898.936 468.457 898.611 468.317 900.565 470.297C904.409 474.192 905.208 477.915 904.438 488.35L904.262 490.737L903.044 490.808C902.373 490.847 899.644 490.605 896.978 490.271C882.841 488.497 881.028 489.812 877.406 504.462C875.242 513.212 871.1 521.476 867.77 523.687C865.126 525.442 863.912 525.512 860.814 524.086C851.988 520.024 838.349 529.649 834.321 542.781C831.29 552.662 831.325 552.577 827.84 558.82C822.209 568.909 822.179 574.385 827.624 598.034C832.034 617.186 831.923 618.472 825.805 619.038C816.862 619.866 813.674 623.408 813.665 632.527C813.661 636.777 813.198 639.468 811.658 644.199C810.194 648.693 809.724 651.171 809.956 653.155C810.18 655.07 810.259 655.245 811.15 655.795C813.94 657.519 815.665 663.7 815.683 672.032C815.697 678.631 815.373 679.583 810.554 687.07C807.742 691.439 806.66 693.483 805.814 696.022C805.138 698.049 804.87 699.328 803.991 704.716C802.813 711.931 798.057 713.717 786.091 711.437C773.836 709.102 770.98 710.138 765.093 719.057C761.136 725.05 759.232 726.333 752.159 727.774C740.909 730.066 736.903 738.687 742.525 748.511C745.194 753.176 749.363 757.65 757.967 765.083C772.458 777.6 775.054 781.468 777.751 794.571C779.629 803.693 780.176 804.885 786.19 812.94C793.766 823.087 797.928 826.196 802.206 824.903C802.928 824.685 804.008 824.483 804.606 824.455C805.518 824.413 805.974 824.191 807.44 823.074C811.214 820.199 817.676 819.327 825.575 820.627C828.374 821.087 827.953 820.717 829.794 824.338C832.502 829.662 833.8 830.665 840.55 832.653C849.514 835.292 850.436 836.054 853.957 843.727C860.794 858.63 869.605 865.682 881.464 865.743C891.04 865.792 892.787 866.944 898.656 877.078C902.726 884.106 904.45 885.669 913.095 890.164C922.601 895.107 925.793 897.946 927.152 902.664C927.771 904.815 929.302 905.552 934.462 906.186C937.637 906.576 938.726 906.302 943.295 903.961C954.217 898.366 961.279 897.26 967.152 900.224C972.81 903.08 977.216 911.601 977.647 920.522L977.791 923.506L979.844 923.486C985.805 923.427 989.681 918.866 992.128 909.032C994.466 899.634 995.354 899.115 1004.29 901.927C1010.56 903.899 1012.85 903.677 1019.25 900.476C1027.69 896.252 1029.07 893.653 1027.08 885.791C1024.59 875.991 1028.6 870.772 1034.68 875.891C1040.31 880.627 1045.32 879.83 1049.8 873.487C1051.55 871.013 1051.52 871.023 1054.11 872.156C1062 875.6 1064.09 880.182 1064.09 894.044C1064.09 912.542 1066.78 916.936 1085.82 929.595C1092.39 933.97 1094.85 935.798 1103.66 942.882C1118.97 955.197 1122.4 957.408 1135.92 963.704C1146.23 968.507 1148.38 970.146 1154.75 978.065C1159.45 983.919 1160.18 984.518 1166.02 987.321C1173.42 990.867 1174.39 991.955 1176.43 998.986C1177.95 1004.2 1177.97 1004.23 1180.52 1003.47C1182.77 1002.8 1184.72 1000.19 1185.05 997.405C1185.48 993.776 1196.45 995.421 1202.01 999.948C1203.48 1001.14 1203.61 1001.16 1204.98 1000.37C1213.75 995.311 1220.28 1000.32 1231.09 1020.42C1239.73 1036.51 1240.78 1037.61 1251.4 1041.81C1257.73 1044.32 1260.38 1045.62 1262.37 1047.22C1267.18 1051.07 1268.11 1057.94 1264.18 1060.62C1259.35 1063.92 1259.79 1067.39 1265.8 1073.28C1270.66 1078.04 1271.18 1079 1273.34 1087.4C1276.36 1099.14 1278.61 1100.29 1294.23 1098.1C1305.59 1096.51 1310.98 1097.59 1317.33 1102.72C1322.07 1106.55 1324.4 1111.57 1324.38 1117.93L1324.38 1121.15L1322.98 1125.33C1320.8 1131.84 1321.08 1134.09 1324.23 1135.69C1327.25 1137.21 1334.39 1133.13 1342.83 1125.07C1352.7 1115.63 1360.32 1112.41 1374.2 1111.8C1378.13 1111.63 1377.91 1111.8 1378.1 1108.68C1378.47 1102.35 1379.57 1099.5 1384.42 1092.29L1386.97 1088.49L1389 1087.3C1390.12 1086.64 1392.54 1084.98 1394.37 1083.6C1396.21 1082.22 1398.52 1080.71 1399.51 1080.23L1401.3 1079.38L1407.23 1079.45C1418.11 1079.58 1422.28 1076.94 1423.74 1069C1424.66 1063.97 1425.22 1062.7 1427.63 1060.1C1430.2 1057.33 1433.19 1055.91 1440.91 1053.8C1447.93 1051.88 1450.67 1051 1455.73 1049.07C1460.97 1047.06 1467.55 1044.88 1473.51 1043.18L1477.69 1041.99L1484.97 1041.78C1493.91 1041.52 1495.73 1041.12 1498.88 1038.73C1501.94 1036.41 1503.43 1033.45 1504.89 1026.81C1505.53 1023.89 1506.55 1021.48 1508.71 1017.8C1514.55 1007.89 1514.89 1001.88 1509.98 995.589C1507.19 992.026 1507.18 991.363 1509.86 987.393C1513.9 981.396 1513.89 977.205 1509.81 971.842C1507.2 968.408 1507.23 967.888 1510.32 964.502C1511.68 963.006 1513.55 960 1515.55 956.103C1518.1 951.123 1520.3 949.169 1524.39 948.227C1528.58 947.26 1534.95 948.848 1538.36 951.711C1543.82 956.294 1549.65 955.922 1552.03 950.839C1552.71 949.393 1552.76 948.266 1552.52 939.141C1552.35 932.681 1553.28 931.615 1561.6 928.759C1569.39 926.088 1571.56 924.59 1576.89 918.249C1581.08 913.247 1582.62 912.24 1588.03 910.945C1603.18 907.321 1610.36 901.505 1614.1 889.812C1616.23 883.167 1616.55 882.749 1622.87 878.539C1630.03 873.776 1631.94 869.044 1630.21 860.339C1628.92 853.821 1630.47 849.168 1635.51 844.401C1639.68 840.453 1641.88 839.332 1647.71 838.18C1662.73 835.215 1671.65 820.641 1668.09 804.906C1665.4 793.061 1652.34 789.093 1640.13 796.414C1634.12 800.02 1634.47 797.773 1641.39 788.4C1650.52 776.034 1654.81 774.21 1658.52 781.113C1661.16 786.003 1663.98 787.649 1669.75 787.649C1681.24 787.651 1685.08 781.958 1682.72 768.406C1680.82 757.449 1682.08 753.986 1689.59 749.484C1703.13 741.367 1705.8 734.979 1704.96 712.701C1704.36 697.013 1704.08 695.767 1696.9 677.164C1691.63 663.539 1691.11 660.645 1691.12 645.178C1691.13 635.46 1691.18 633.935 1691.7 629.185C1692.17 624.962 1692.28 622.647 1692.29 617.369C1692.31 608.321 1692.48 608.909 1687.25 600.112C1680.1 588.065 1678.31 582.576 1678.64 573.686C1678.83 568.595 1679.4 567.389 1684.51 561.192C1695.03 548.43 1693.68 539.196 1679.46 526.506C1674.07 521.701 1672.4 520.691 1664.59 517.516C1654.72 513.505 1655.07 514.029 1655.15 503.388C1655.23 492.508 1654.92 491.045 1651.87 487.933C1650.87 486.916 1649.83 485.795 1649.55 485.441L1649.05 484.798L1648.38 485.321C1647.9 485.705 1647.39 485.843 1646.49 485.843C1644.78 485.843 1642.75 486.412 1640.49 487.523C1636.8 489.346 1630.87 486.731 1623.9 480.195C1617.65 474.343 1617.29 473.76 1616.63 468.299C1615.95 462.776 1614 461.929 1603.16 462.46C1597.16 462.754 1597.8 463.385 1597.32 456.722C1595.19 427.229 1596.12 425.19 1615.2 417.784C1625.29 413.866 1626.74 413.323 1630.95 411.865C1638.68 409.195 1642.62 406.966 1647.43 402.532C1651.18 399.075 1653.21 398.478 1661.25 398.478C1670.58 398.478 1672.12 396.758 1672.14 386.304C1672.16 375.905 1672.89 373.375 1677.15 369.113C1683.16 363.087 1690.79 362.36 1699.19 367.012C1704.54 369.975 1705.15 370.146 1712.35 370.661C1714.98 370.849 1718.56 371.275 1720.3 371.607C1737.87 374.955 1752.01 373.665 1757.48 368.216C1760.27 365.434 1761.21 363.237 1762.74 355.87C1763.31 353.113 1764.32 348.242 1764.98 345.046C1765.64 341.849 1766.36 337.714 1766.58 335.856C1767.07 331.795 1767.02 331.88 1769.04 331.88C1773.14 331.88 1774.91 334.276 1775.23 340.234L1775.39 343.218L1778.25 343.362C1784.94 343.699 1787.55 346.06 1786.6 350.914C1785.9 354.48 1786.88 355.627 1790.47 355.463C1792.52 355.369 1793.18 354.954 1797.45 351.068C1803.66 345.405 1807.87 345.306 1816.22 350.624C1824.95 356.181 1829.73 355.018 1838 345.322C1842.9 339.581 1845.32 337.968 1849.04 337.967C1852.11 337.967 1852.01 337.778 1851.75 342.856C1851.22 353.392 1851.58 354.713 1856.48 359.964C1859.07 362.736 1860.3 364.477 1861.14 366.574C1862.61 370.243 1861.52 369.953 1873.86 369.952L1884.01 369.95L1886.27 369.321C1887.52 368.975 1890.64 367.916 1893.2 366.968C1900.02 364.443 1901.96 364.012 1909.19 363.414C1923.33 362.245 1925.55 362.763 1929.06 368.043C1933.72 375.068 1938.39 374.544 1942.96 366.487C1949.18 355.501 1956.67 349.626 1964.34 349.73C1970.7 349.817 1971.99 349.347 1976.21 345.414C1980.57 341.344 1982.8 340.234 1986.6 340.234C1993.56 340.234 1996.53 329.609 1996.57 304.548C1996.58 295.215 1998.38 291.836 2005.04 288.656C2010.78 285.914 2019.05 283.725 2025.6 283.214C2028.71 282.972 2028.2 283.438 2032.86 276.599C2046.79 256.131 2051.38 254.281 2069.5 261.824C2075.36 264.266 2074.98 264.02 2075.06 265.368C2075.43 271.077 2071.15 275.27 2060.07 280.083C2051.67 283.728 2048.9 286.217 2047.32 291.523C2045.62 297.275 2048.79 299.163 2060.19 299.18C2069.49 299.193 2072.38 300.003 2073.4 302.877C2074.74 306.691 2082.55 305.531 2085.44 301.087C2087.56 297.831 2095.4 296.15 2095.4 298.951C2095.4 300.631 2098.76 304.872 2100.95 305.966C2104.01 307.488 2106.42 306.387 2107.97 302.758C2110.75 296.262 2115.54 295.005 2130.38 296.869C2137.91 297.816 2140.27 297.933 2140.68 297.38C2141.12 296.777 2141.1 291.976 2140.64 288.555C2140.19 285.197 2140.15 285.539 2141.14 284.354C2142.25 283.019 2143.16 281.205 2144.58 277.434C2147.48 269.754 2148.36 269.752 2155.05 277.413C2157.17 279.843 2157.12 279.894 2158.6 274.23C2161.2 264.282 2162.21 258.81 2162.72 251.914C2163.02 247.827 2163.39 246.141 2165.33 240.127C2168.02 231.797 2168.72 226.768 2167.38 225.435C2166.8 224.862 2159.16 224.546 2153.77 224.872L2150.67 225.06L2150.54 227.208C2150.37 230.132 2148.96 232.818 2147.58 232.818C2147.09 232.818 2145.41 230.881 2141.8 226.134C2139.94 223.706 2137.48 220.644 2136.33 219.331C2132.44 214.909 2132.23 214.432 2131.34 208.431C2129.48 195.891 2126.56 192.544 2117.06 192.07C2113.61 191.897 2113.66 191.929 2113.19 189.135C2112.22 183.279 2110.95 180.815 2106.67 176.439C2103.73 173.441 2103.73 173.427 2106.54 172.559C2122.66 167.571 2126.05 160.292 2119.65 144.444C2117.27 138.545 2116.62 136.314 2116.57 133.767L2116.53 131.749L2118.21 131.464C2123.98 130.484 2126.34 125.398 2125.32 116.092L2125.12 114.302L2123.88 113.889C2123.2 113.663 2121.69 113.302 2120.54 113.089C2115.15 112.091 2114.86 111.844 2115.05 108.454C2115.42 101.982 2120.53 93.2977 2125.41 90.8562C2129.73 88.6914 2133.17 88.8754 2142.17 91.7518C2146.71 93.2024 2148.74 93.6445 2150.86 93.65C2152.64 93.6545 2152.34 93.8412 2154.47 91.446C2155.9 89.8431 2158.2 90.64 2160.44 93.5103C2162.62 96.2991 2163.24 96.7794 2167.09 98.6572C2179.32 104.618 2183.53 104.536 2194.87 98.1123C2203.41 93.2745 2206.75 92.6157 2217.92 93.5655C2220.14 93.7535 2220.32 93.5499 2219.67 91.6556C2218.24 87.5423 2216.98 85.0762 2214.1 80.7846C2209.1 73.3101 2208.48 71.6523 2207.83 63.9477C2207.35 58.2336 2204.33 56.5206 2192.65 55.345C2182.65 54.3384 2181.12 50.9565 2183.38 34.8137C2184.56 26.3968 2183.39 23.1308 2178.09 19.9847C2174.21 17.6838 2172.56 15.678 2172.01 12.5864C2170.68 5.12903 2169.59 2.99933 2163.82 -3.4082C2155.51 -12.6443 2154.32 -21.1379 2160.32 -28.3233C2166.43 -35.6346 2163.66 -38.3021 2143.74 -44.3088C2129.88 -48.4885 2130.15 -48.3653 2129.95 -50.6748C2129.41 -57.0598 2121.19 -62.3856 2114 -61.0207C2108.54 -59.9857 2106.19 -56.7207 2104.12 -47.3002C2102.46 -39.7558 2100.91 -36.7166 2097.95 -35.2066C2096.57 -34.4998 2096.46 -34.6442 2096.14 -37.6719C2095.71 -41.7112 2095.92 -41.3398 2093.42 -42.5422C2088.08 -45.1204 2087.62 -44.9574 2082.22 -38.605C2073.97 -28.896 2058.3 -28.6721 2053.84 -38.1994C2052.42 -41.2346 2052.18 -43.3533 2051.96 -54.4613C2051.76 -64.854 2051.6 -66.808 2050.62 -70.4432C2048.82 -77.1307 2048.6 -79.0186 2048.41 -89.312L2048.25 -97.6666L2046.34 -97.6406C2045.29 -97.6263 2042.71 -97.5726 2040.61 -97.5212C2035.06 -97.3857 2034.35 -97.833 2031.64 -103.109C2028.92 -108.391 2025.33 -110.637 2013.64 -114.363C2010.49 -115.367 2004.9 -117.272 2001.22 -118.595C1978.57 -126.75 1968.19 -128.334 1956.78 -125.377C1955.98 -125.169 1955.26 -124.998 1955.19 -124.998C1955.11 -124.998 1954.46 -125.79 1953.73 -126.758C1946.88 -135.863 1930.74 -133.631 1913.22 -121.155L1912.5 -120.641L1912.66 -109.512C1912.83 -97.3795 1912.76 -96.3401 1911.44 -90.4513C1909.51 -81.8468 1908.46 -80.8039 1901.78 -80.8622C1886.52 -80.9956 1881.2 -71.722 1882.79 -47.7344C1884.12 -27.6516 1882.15 -23.4129 1861.68 -2.25046C1849.59 10.2411 1846.24 15.097 1842.24 25.9305C1840.17 31.554 1840.14 31.6793 1840.07 37.2007C1839.99 42.7964 1839.91 42.5379 1842.68 45.0287C1844.95 47.068 1845.46 48.2472 1845.64 51.8464C1846.03 59.9768 1841.85 64.7638 1825.88 74.4404C1814.56 81.2961 1810.47 84.7311 1807.85 89.5787L1807.13 90.9089L1805.94 90.8541C1805.28 90.824 1803.64 90.6208 1802.28 90.4029C1799.39 89.9405 1799.54 89.8513 1799.12 92.335C1798.74 94.6022 1798.96 98.6744 1799.71 103.083C1801.24 112.168 1801.16 112.507 1797.45 112.51C1795.37 112.512 1795.34 112.46 1795.07 108.332C1794.87 105.319 1794.36 99.8632 1793.75 94.4382C1792.86 86.3452 1794.02 79.3564 1797.89 69.6661C1799.4 65.8659 1799.71 64.8516 1799.81 63.3977C1800.26 56.3142 1790.47 53.17 1780.7 57.2596C1777.96 58.4037 1778.11 58.5441 1779 55.5809C1779.71 53.2363 1779.6 47.9092 1778.78 44.9102C1775.99 34.7032 1768.87 32.6165 1764.4 40.6937L1763.69 41.9748L1763.65 46.6295C1763.59 52.9246 1763.35 53.5953 1759.68 57.7292C1756.97 60.783 1755.94 63.3034 1755.93 66.9036C1755.92 71.5804 1754.07 73.1454 1746.16 75.15C1744.8 75.494 1742.61 76.1471 1741.29 76.6013C1737.49 77.9094 1736.56 77.9865 1731.64 77.3998C1724.02 76.4894 1721.97 76.8298 1716.94 79.8362C1710.5 83.6846 1710.14 83.7662 1699.94 83.6758C1687.09 83.5621 1686.12 83.9307 1679.53 91.4372C1669.88 102.417 1668.61 105.647 1671.52 111.764C1673.04 114.937 1673.01 114.801 1672.37 116.884C1671.42 119.965 1669.01 122.404 1662.75 126.632C1659.03 129.144 1656.92 130.749 1655.85 131.881C1655.23 132.54 1655.14 132.563 1652.87 132.564C1651.58 132.565 1648.43 132.778 1645.87 133.037C1635.21 134.117 1631.47 133.291 1623.82 128.161C1616.88 123.515 1614.76 120.777 1613.54 114.949C1611.82 106.693 1606.65 100.813 1599.25 98.6864C1595.19 97.522 1594.08 96.7424 1592.79 94.1823C1591.52 91.6663 1591.69 90.9529 1594.21 88.3651C1598.37 84.0906 1599.28 79.7537 1597.75 71.4573C1596.39 64.0544 1597.03 60.9959 1600.65 57.4745C1604.97 53.2743 1605.29 51.5341 1602.99 44.7452L1601.65 40.7839L1601.78 37.4409C1601.91 33.7749 1602.29 31.9705 1604.25 25.5098C1607.67 14.2742 1607.59 10.9689 1603.6 -1.31671C1600.32 -11.4064 1600.35 -15.9504 1603.76 -23.7379C1607.38 -32.0077 1607.56 -32.7112 1608.04 -40.84C1608.52 -48.8986 1608.89 -50.7739 1611.73 -59.4813C1614.19 -67.0539 1614.46 -68.4188 1614.47 -73.5485L1614.48 -77.8364L1615.32 -78.0507C1623.15 -80.0601 1624.12 -82.3679 1621.29 -92.2216C1619 -100.176 1619.16 -101.678 1622.81 -107.314C1626 -112.226 1626.44 -113.624 1627.95 -123.566C1628.48 -127.045 1629.13 -131.113 1629.4 -132.606C1631.36 -143.622 1627.01 -147.668 1619.26 -142.059C1616.74 -140.244 1616.56 -140.179 1614.23 -140.328C1611.66 -140.493 1610.51 -141.159 1608.93 -143.39C1603.89 -150.497 1601.34 -151.726 1591.21 -151.911C1584.36 -152.037 1584.76 -151.871 1584.76 -154.567C1584.77 -157.429 1585.15 -158.66 1587.5 -163.31C1592.35 -172.942 1590.88 -180.171 1580.22 -198.996C1578.62 -201.819 1576.78 -205.197 1576.12 -206.503C1575.46 -207.809 1573.75 -210.747 1572.33 -213.032C1566.4 -222.535 1566.48 -227.356 1572.7 -234.969C1577.52 -240.866 1578.4 -242.026 1579.59 -244.111C1584.86 -253.354 1587.45 -265.827 1586.67 -278.206C1586.02 -288.553 1584.43 -293.909 1581.18 -296.692C1578.11 -299.321 1574.4 -299.228 1564.47 -296.275C1554.17 -293.214 1549.71 -293.977 1545.99 -299.433C1541.7 -305.72 1542.56 -311.653 1550.4 -329.848C1554.7 -339.834 1556.58 -346.068 1556.3 -349.344L1556.23 -350.176L1554.03 -350.714C1545.07 -352.907 1541.5 -359.341 1537.95 -379.695C1535.26 -395.144 1534.65 -396.597 1528.07 -403.326C1523.78 -407.715 1523.34 -408.383 1521.65 -413.061C1516.64 -426.937 1505.69 -429.511 1479.24 -423.025C1469.42 -420.615 1467.37 -420.194 1466.09 -420.316L1465.28 -420.393L1465.2 -422.184C1465.1 -424.67 1465.46 -426.948 1466.95 -433.164C1468.21 -438.426 1468.68 -441.155 1468.8 -444.025L1468.86 -445.457L1469.93 -445.612C1470.52 -445.697 1472.89 -445.65 1475.18 -445.508C1477.48 -445.366 1480.16 -445.243 1481.14 -445.234L1482.93 -445.219L1483.31 -446.676C1483.86 -448.765 1484.68 -450.019 1487.37 -452.881C1491.83 -457.625 1493.26 -461.873 1492.25 -467.418C1491.83 -469.682 1490.9 -475.245 1490.35 -478.756C1488.81 -488.433 1485.45 -491.986 1476.86 -493.004C1475.24 -493.195 1475.24 -493.199 1475.06 -497.26C1474.58 -508.123 1472.54 -511.077 1466.47 -509.675ZM1648.03 505.317C1648.25 517.781 1649.27 519.126 1662.7 524.52C1668.96 527.031 1670.98 528.327 1675.93 532.984C1685.28 541.794 1686.47 547.435 1680.51 554.727C1672.34 564.716 1671.55 566.52 1671.56 574.999C1671.58 585.278 1673.26 590.601 1680.16 602.239C1682.08 605.472 1683.98 608.828 1684.4 609.699L1685.15 611.282L1685.13 617.608C1685.11 621.852 1684.97 625.151 1684.7 627.633C1684 633.889 1683.85 637.006 1683.84 645.07C1683.82 661.39 1684.72 665.909 1691.29 682.774C1696.61 696.395 1697.28 699.262 1697.7 709.964C1698.6 732.759 1697.25 736.514 1685.72 743.393C1675.81 749.301 1673.3 755.651 1675.55 769.103C1677.09 778.309 1676.83 779.157 1672.17 780.281C1668.23 781.233 1666.29 780.434 1664.53 777.121C1659.44 767.552 1649.38 767.618 1641.01 777.275C1633.27 786.221 1628.37 794.494 1628.77 797.943C1629.63 805.219 1635.91 807.406 1643.23 802.98C1646.74 800.864 1649.9 799.977 1653.96 799.977C1662.78 799.977 1664.73 816.695 1656.87 824.878C1652.75 829.169 1650.91 830.213 1645.63 831.255C1638.86 832.593 1635.05 834.658 1630.06 839.676C1623.65 846.131 1621.42 853.041 1623.1 861.268C1624.45 867.922 1623.87 869.289 1618.11 873.085C1611.43 877.494 1609.56 879.995 1607.31 887.581C1605.21 894.664 1603.1 897 1595.25 900.892C1592.36 902.321 1590.42 902.966 1585.71 904.049C1579.75 905.424 1576.49 907.579 1571.69 913.329C1567.29 918.591 1566.06 919.444 1559.45 921.783C1548.13 925.794 1545.15 929.402 1545.34 938.902C1545.52 948.144 1545.55 947.367 1544.98 947.449C1544.63 947.498 1543.95 947.055 1542.83 946.067C1537.18 941.052 1526.53 939.32 1519.46 942.264C1514.55 944.305 1512.58 946.415 1508.75 953.684C1507.51 956.03 1506.13 958.267 1505.32 959.254C1502.57 962.569 1502.32 962.919 1501.59 964.443C1499.87 968.055 1500.53 971.474 1503.82 975.852C1506.31 979.171 1506.3 979.694 1503.68 983.781C1499.67 990.016 1499.63 993.771 1503.52 998.936C1507.22 1003.84 1507.14 1006.23 1503.03 1013.36C1499.54 1019.42 1498.65 1021.6 1497.5 1026.93C1496.51 1031.5 1495.19 1033.25 1492.02 1034.18C1491.62 1034.3 1488.02 1034.5 1484.02 1034.62C1476.04 1034.86 1475.87 1034.89 1469.5 1036.79C1463.95 1038.44 1459.06 1040.08 1453.22 1042.26C1447.17 1044.52 1445.9 1044.93 1439.08 1046.78C1424.97 1050.62 1418.94 1055.85 1417.03 1065.91C1415.86 1072.07 1415.62 1072.22 1406.79 1072.22H1400.34L1398.45 1072.89C1395.79 1073.83 1393.93 1074.93 1390.06 1077.84C1387.9 1079.47 1385.66 1080.9 1383.82 1081.84L1380.94 1083.31L1366.77 1085.24L1352.6 1087.17L1350.69 1086.78C1349.64 1086.56 1344.96 1085.47 1340.3 1084.35C1325.31 1080.77 1319.9 1079.84 1312.13 1079.53L1308.43 1079.38L1308.46 1075.68C1308.59 1060.91 1316.31 1054.27 1339.7 1048.83C1355.74 1045.09 1363.54 1042.61 1371.05 1038.82C1378.82 1034.91 1376.98 1028 1364.05 1012.42C1354.48 1000.89 1350.42 992.943 1352.07 988.985C1354.49 983.205 1364.13 991.422 1373.77 1007.48C1392.23 1038.23 1401.12 1038.38 1431.46 1008.48C1450.18 990.038 1453.65 985.094 1457.04 972.082C1460.95 957.051 1463.84 953.595 1478.76 946.063C1489.07 940.861 1493.98 937.174 1501.33 929.115C1512 917.419 1516.47 909.425 1522.77 890.797C1532.14 863.08 1535.93 856.852 1551.1 844.249C1564.61 833.02 1567.11 828.851 1568.52 815.135C1570.07 800.132 1572.18 797.028 1588.1 786.357C1603.82 775.823 1606.67 770.226 1607.56 748.059C1608.18 732.951 1608.39 731.986 1614.41 717.624C1622.88 697.412 1625.73 689.574 1627.49 681.572C1628.3 677.864 1628.28 677.761 1626.81 677.76C1621.22 677.752 1618.16 676.338 1619.22 674.252C1620.3 672.128 1621.45 668.407 1622.71 662.961C1623.4 660.007 1624.49 655.948 1625.12 653.942C1627.74 645.709 1627.73 627.98 1625.11 616.338C1623.72 610.176 1623.79 608.965 1625.95 602.331C1627.93 596.239 1627.69 594.59 1624.37 591.414C1621.31 588.478 1620.88 587.438 1620.34 581.618C1619.91 576.991 1619.04 574.353 1616.37 569.509C1609.65 557.339 1609.3 552.292 1614.55 543.417C1620.7 533.029 1620.61 533.292 1621.04 524.897C1621.66 512.888 1622.59 511.569 1635.13 504.949C1640.9 501.904 1643.6 500.328 1645.75 498.757C1648.04 497.087 1647.89 496.656 1648.03 505.317ZM1585.22 831.314C1581.36 833.638 1573.81 839.903 1558.86 853.199C1554.39 857.167 1549.73 861.178 1548.49 862.11C1543.48 865.888 1540.92 869.036 1538.93 873.885C1537.33 877.779 1537.36 877.832 1540.68 877.198C1541.7 877 1543.64 876.838 1544.97 876.837C1558.65 876.823 1564.34 873.071 1568.55 861.281C1569 860.022 1569.53 858.995 1569.82 858.792C1570.09 858.601 1571.17 857.899 1572.21 857.232C1573.47 856.429 1575.53 854.634 1578.3 851.918C1580.61 849.662 1583 847.452 1583.63 847.007C1584.89 846.114 1585.01 845.831 1586.43 840.437C1587.85 835.079 1587.95 830.57 1586.66 830.535C1586.58 830.533 1585.94 830.883 1585.22 831.314Z" fill="#40A8E4"/>
<path fill-rule="evenodd" clip-rule="evenodd" d="M1429.79 27.1251C1428.07 27.5234 1424.39 29.2506 1422.41 30.5988C1421.89 30.9485 1421.91 30.9734 1422.99 31.4385C1427.18 33.2459 1428.86 34.5789 1429.56 36.6542C1430.27 38.7298 1428.77 39.8952 1424.82 40.3591C1418.7 41.0783 1417.54 41.8602 1416.35 46.0679C1415.54 48.9446 1414.87 49.6542 1412.87 49.7642C1411.58 49.8353 1410.98 49.2897 1410.66 47.7569C1410.25 45.7852 1408.34 47.114 1408.15 49.5074C1408.07 50.4317 1408.02 50.4552 1406.17 50.47C1403.48 50.4916 1402.42 49.5746 1403 47.7173C1403.22 46.985 1403.2 46.7906 1402.75 45.8699C1401.8 43.8932 1400.72 43.9082 1399.23 45.9186C1398.14 47.3853 1397.94 49.7425 1398.82 50.7177C1399.38 51.3323 1399 52.4176 1397.16 55.4794C1395.18 58.7961 1395.03 60.3888 1396.06 67.2607C1396.1 67.4883 1396.13 68.6261 1396.13 69.7892L1396.14 71.9038L1396.39 72.3844C1396.67 72.9057 1396.82 73.0126 1397.76 73.3204C1398.69 73.6261 1398.94 74.0355 1398.94 75.2401C1398.94 77.2664 1398.42 77.7157 1395.9 77.8398C1391.92 78.0364 1390.81 80.2861 1393.43 82.8401C1395.12 84.4813 1395.29 85.5202 1394.02 86.3833C1393.5 86.7353 1393.38 86.8671 1393.1 87.4506C1392.72 88.2368 1392.22 88.7225 1391.22 89.2739C1390.11 89.888 1390 90.7573 1390.76 93.0057C1391.21 94.3486 1391.21 94.3724 1391.31 96.0495C1391.43 98.3101 1391.47 98.6203 1391.69 98.97C1391.98 99.4579 1392.78 99.7611 1394.34 99.9836C1397.17 100.385 1397.67 100.895 1400.2 105.877C1404 113.379 1404.21 115.839 1401.59 122.013C1399.98 125.78 1399.78 126.963 1400.08 131.001C1400.58 137.773 1400.06 139.068 1395.13 143.31C1390.04 147.685 1388.95 149.989 1389.97 154.285C1390.89 158.19 1390.31 159.628 1387.94 159.369C1384.91 159.038 1382.99 160.668 1378.94 167.023C1376.73 170.497 1376.32 170.88 1374.83 170.881C1372.87 170.881 1371.42 171.232 1369.77 172.104C1366.64 173.755 1366.19 175.201 1368.22 177.02C1370.87 179.398 1371.33 180.425 1370.52 182.189C1370.07 183.153 1367.85 185.332 1366.81 185.823C1365.69 186.355 1364.61 187.756 1363.32 190.381C1362.04 192.968 1361.89 193.808 1362.4 195.475C1363.13 197.877 1363.18 198.361 1362.94 200.145C1362.73 201.717 1362.8 202.093 1363.49 203.309C1364.21 204.565 1364.27 205.363 1363.78 207.199C1363.65 207.679 1363.39 208.63 1363.21 209.312C1362.16 213.194 1363.59 217.286 1367.36 221.159C1370.73 224.632 1373.36 225.855 1378.56 226.371C1385.61 227.071 1386.18 227.5 1386.57 232.39C1386.75 234.58 1386.84 235.033 1387.72 237.631C1388.46 239.828 1388.74 241.049 1388.74 242.083C1388.74 242.39 1388.8 243.521 1388.88 244.595C1389.18 248.583 1389 248.894 1386.48 248.894C1383.62 248.893 1382.71 248.596 1382.87 247.712C1383 247.005 1382.9 246.907 1382.1 246.895C1381 246.878 1380.56 247.385 1380.31 248.953C1379.86 251.783 1379.62 252.219 1377.76 253.577C1375.28 255.383 1374.94 256.527 1375.74 260.431C1376.62 264.757 1377.81 265.828 1381.53 265.633C1382.86 265.562 1383.13 265.631 1383.13 266.047C1383.13 267.515 1384.11 270.453 1386.12 274.96C1388.11 279.44 1388.39 280.29 1388.38 281.901C1388.38 285.017 1386.62 287.197 1381.11 290.932C1377.2 293.58 1376.55 295.12 1377.53 299.479C1377.68 300.155 1377.83 301.028 1377.86 301.419C1378.16 305.387 1372.06 309.671 1368.45 308.02C1366.86 307.292 1366.46 306.256 1366.75 303.692C1366.99 301.6 1366.49 300.968 1364.37 300.695C1362.46 300.449 1359.28 300.931 1357.96 301.668C1357.25 302.063 1357.24 301.813 1357.8 299.085C1358.08 297.74 1358.12 297.357 1358.12 296.233C1358.12 294.718 1358.21 294.858 1356.97 294.403C1355.16 293.741 1354.43 293.531 1352.64 293.165C1348.19 292.254 1346.55 291.084 1344.33 287.215C1343.19 285.248 1341.55 280.787 1341.21 278.775C1341.04 277.774 1340.98 277.673 1340.13 277.109C1338.38 275.941 1337.26 275.57 1335.46 275.562L1334.26 275.557L1334.21 277.166C1334.15 279.29 1334.08 279.438 1332.87 280.045C1331.69 280.639 1331.44 280.682 1328.61 280.757C1324.27 280.874 1323.75 281.196 1323.15 284.154C1322.41 287.773 1322.69 290.523 1324.05 293.257C1327.22 299.572 1326.52 304.102 1321.73 308.423C1320.71 309.341 1319.83 310.327 1318.03 312.564C1314.12 317.43 1312.34 318.464 1307.83 318.491C1305.1 318.507 1304.98 318.525 1304.09 319.048C1302.9 319.749 1302.41 320.867 1301.81 324.266C1301.25 327.466 1300.9 327.858 1297.03 329.541C1292.77 331.395 1292.1 332.407 1292.57 336.305C1293.16 341.268 1292.4 342.026 1286.51 342.357C1285.52 342.413 1284.62 342.475 1284.52 342.494C1284.32 342.531 1284.24 349.397 1284.42 350.72C1284.67 352.599 1285.36 353.782 1286.63 354.494C1287.28 354.862 1287.22 354.703 1287.37 356.442C1287.74 360.559 1287.28 362.101 1285.49 362.772C1283.83 363.398 1282.67 363.064 1280.31 361.264C1278.71 360.051 1277.96 359.7 1276.76 359.615C1276.38 359.588 1276.35 359.532 1276.16 358.444C1275.51 354.751 1273.02 350.569 1270.07 348.231C1269.23 347.565 1269.21 347.55 1269.21 347.148C1269.21 346.906 1269.11 346.728 1268.75 346.332C1267.75 345.244 1267.53 344.388 1267.38 341.066C1267.19 337.004 1266.8 336.708 1261.63 336.709C1258.6 336.709 1256.41 336.92 1254.96 337.352C1253.8 337.696 1253.23 338.969 1252.85 342.045C1252.75 342.847 1252.6 344.06 1252.52 344.74C1251.94 349.526 1250.71 350.627 1247.14 349.57C1246.51 349.383 1245.44 349.063 1244.75 348.859C1242.54 348.198 1239.82 348.541 1238.62 349.635C1237.85 350.329 1237.61 350.327 1236.24 349.611C1234.48 348.688 1234.35 348.672 1228.57 348.641C1223.29 348.614 1222.94 348.588 1220.43 348.057C1218.12 347.566 1217.57 347.485 1216.45 347.47L1215.47 347.456L1215.09 348.613C1214.87 349.249 1214.43 351.005 1214.09 352.516C1213.12 356.833 1212.64 358.149 1211.18 360.466C1208.93 364.027 1206.14 369.291 1204.35 373.338C1201.51 379.764 1201.57 381.061 1204.76 383.431C1206.63 384.816 1206.8 385.618 1205.82 388.601C1205.04 390.965 1205.05 391.634 1205.87 396.416C1206.62 400.843 1207.89 403.322 1209.54 403.598C1211.21 403.878 1211.09 403.824 1211.84 404.587C1213.32 406.087 1213.63 407.521 1213.33 411.541L1213.26 412.46L1212.79 412.487C1212.54 412.502 1211.48 412.409 1210.46 412.28C1205.01 411.597 1204.31 412.104 1202.92 417.747C1202.09 421.117 1200.49 424.3 1199.21 425.152C1198.19 425.828 1197.72 425.855 1196.53 425.305C1193.13 423.741 1187.88 427.448 1186.33 432.506C1185.16 436.312 1185.17 436.279 1183.83 438.684C1181.66 442.57 1181.65 444.679 1183.75 453.788C1185.45 461.165 1185.4 461.661 1183.05 461.879C1179.6 462.198 1178.37 463.562 1178.37 467.074C1178.37 468.711 1178.19 469.748 1177.6 471.57C1177.03 473.301 1176.85 474.255 1176.94 475.02C1177.03 475.757 1177.06 475.825 1177.4 476.037C1178.48 476.701 1179.14 479.081 1179.15 482.291C1179.15 484.832 1179.03 485.199 1177.17 488.083C1176.09 489.766 1175.67 490.553 1175.35 491.531C1175.09 492.312 1174.98 492.804 1174.65 494.88C1174.19 497.659 1172.36 498.347 1167.75 497.468C1163.03 496.569 1161.93 496.968 1159.66 500.403C1158.14 502.712 1157.41 503.206 1154.68 503.761C1150.35 504.644 1148.81 507.965 1150.97 511.749C1152 513.545 1153.61 515.269 1156.92 518.131C1162.5 522.953 1163.5 524.443 1164.54 529.49C1165.26 533.003 1165.47 533.462 1167.79 536.565C1170.71 540.473 1172.31 541.671 1173.96 541.173C1174.24 541.089 1174.65 541.011 1174.88 541C1175.23 540.984 1175.41 540.899 1175.97 540.468C1177.43 539.361 1179.92 539.025 1182.96 539.526C1184.04 539.703 1183.87 539.561 1184.58 540.955C1185.63 543.006 1186.13 543.392 1188.73 544.158C1192.18 545.174 1192.53 545.468 1193.89 548.423C1196.52 554.164 1199.92 556.88 1204.48 556.903C1208.17 556.922 1208.84 557.366 1211.1 561.269C1212.67 563.977 1213.34 564.578 1216.67 566.31C1220.33 568.214 1221.56 569.307 1222.08 571.125C1222.32 571.953 1222.91 572.237 1224.89 572.481C1226.12 572.631 1226.54 572.526 1228.3 571.624C1232.5 569.469 1235.22 569.043 1237.48 570.185C1239.66 571.285 1241.36 574.567 1241.53 578.003L1241.58 579.152L1242.37 579.144C1244.67 579.122 1246.16 577.365 1247.1 573.577C1248 569.958 1248.35 569.758 1251.79 570.841C1254.2 571.6 1255.09 571.515 1257.55 570.282C1260.8 568.655 1261.33 567.654 1260.56 564.625C1259.6 560.851 1261.15 558.841 1263.49 560.812C1265.66 562.636 1267.59 562.329 1269.32 559.886C1269.99 558.933 1269.98 558.937 1270.97 559.374C1274.01 560.7 1274.82 562.465 1274.82 567.804C1274.82 574.929 1275.85 576.622 1283.19 581.498C1285.72 583.183 1286.66 583.887 1290.06 586.616C1295.96 591.359 1297.27 592.21 1302.48 594.636C1306.45 596.486 1307.28 597.117 1309.73 600.167C1311.54 602.422 1311.83 602.653 1314.08 603.732C1316.92 605.098 1317.3 605.517 1318.09 608.226C1318.67 610.235 1318.68 610.244 1319.66 609.953C1320.53 609.695 1321.28 608.69 1321.4 607.616C1321.57 606.219 1325.8 606.852 1327.94 608.596C1328.5 609.054 1328.55 609.061 1329.08 608.757C1332.46 606.81 1334.97 608.741 1339.13 616.481C1342.47 622.678 1342.87 623.101 1346.96 624.721C1349.39 625.686 1350.42 626.189 1351.18 626.803C1353.03 628.287 1353.39 630.934 1351.88 631.966C1350.02 633.238 1350.19 634.574 1352.51 636.842C1354.38 638.676 1354.58 639.047 1355.41 642.279C1356.57 646.801 1357.44 647.245 1363.45 646.403C1367.83 645.789 1369.91 646.205 1372.35 648.183C1374.18 649.658 1375.07 651.591 1375.07 654.04L1375.06 655.281L1374.53 656.89C1373.69 659.399 1373.79 660.264 1375.01 660.879C1376.17 661.465 1378.92 659.895 1382.17 656.79C1385.97 653.155 1388.91 651.913 1394.25 651.679C1395.77 651.613 1395.68 651.68 1395.75 650.477C1395.9 648.041 1396.32 646.94 1398.19 644.162L1399.17 642.7L1399.95 642.241C1400.38 641.989 1401.31 641.348 1402.02 640.816C1402.73 640.285 1403.62 639.702 1404 639.521L1404.69 639.191L1406.97 639.219C1411.16 639.269 1412.77 638.253 1413.33 635.191C1413.69 633.255 1413.9 632.767 1414.83 631.766C1415.82 630.7 1416.97 630.152 1419.94 629.339C1422.65 628.598 1423.71 628.261 1425.65 627.516C1427.67 626.742 1430.2 625.904 1432.5 625.249L1434.11 624.79L1436.91 624.708C1440.36 624.607 1441.06 624.454 1442.27 623.536C1443.45 622.64 1444.03 621.502 1444.58 618.943C1444.83 617.817 1445.23 616.889 1446.06 615.473C1448.31 611.654 1448.44 609.34 1446.55 606.917C1445.47 605.545 1445.47 605.289 1446.5 603.76C1448.06 601.45 1448.05 599.836 1446.48 597.77C1445.47 596.448 1445.49 596.247 1446.68 594.943C1447.2 594.367 1447.92 593.209 1448.69 591.708C1449.68 589.79 1450.52 589.037 1452.09 588.674C1453.71 588.302 1456.16 588.914 1457.48 590.016C1459.58 591.781 1461.82 591.638 1462.74 589.68C1463 589.123 1463.02 588.689 1462.93 585.175C1462.86 582.686 1463.22 582.276 1466.43 581.175C1469.43 580.147 1470.26 579.57 1472.31 577.127C1473.93 575.201 1474.52 574.813 1476.61 574.314C1482.44 572.918 1485.2 570.678 1486.65 566.174C1487.47 563.615 1487.59 563.454 1490.03 561.832C1492.78 559.997 1493.52 558.175 1492.85 554.822C1492.36 552.311 1492.95 550.519 1494.89 548.683C1496.5 547.162 1497.34 546.73 1499.59 546.287C1505.37 545.145 1508.81 539.531 1507.44 533.471C1506.41 528.908 1501.38 527.38 1496.67 530.2C1494.36 531.589 1494.49 530.723 1497.16 527.113C1500.67 522.35 1502.33 521.647 1503.76 524.306C1504.77 526.189 1505.86 526.823 1508.08 526.824C1512.5 526.824 1513.98 524.632 1513.08 519.411C1512.34 515.191 1512.83 513.857 1515.72 512.123C1520.94 508.997 1521.96 506.536 1521.64 497.955C1521.41 491.913 1521.3 491.433 1518.53 484.267C1516.51 479.019 1516.31 477.905 1516.31 471.947C1516.31 468.204 1516.33 467.617 1516.53 465.787C1516.71 464.16 1516.76 463.269 1516.76 461.236C1516.77 457.751 1516.83 457.977 1514.82 454.589C1512.07 449.948 1511.38 447.834 1511.5 444.41C1511.58 442.449 1511.79 441.984 1513.76 439.598C1517.81 434.682 1517.3 431.125 1511.82 426.237C1509.74 424.386 1509.1 423.998 1506.09 422.775C1502.29 421.23 1502.42 421.431 1502.46 417.333C1502.49 413.142 1502.37 412.579 1501.19 411.38C1500.81 410.988 1500.41 410.556 1500.3 410.42L1500.11 410.173L1499.85 410.374C1499.66 410.522 1499.47 410.575 1499.12 410.575C1498.46 410.575 1497.68 410.794 1496.81 411.222C1495.39 411.924 1493.11 410.917 1490.42 408.399C1488.01 406.145 1487.88 405.921 1487.62 403.817C1487.36 401.69 1486.61 401.364 1482.43 401.568C1480.12 401.681 1480.37 401.925 1480.18 399.358C1479.36 387.998 1479.72 387.213 1487.07 384.36C1490.96 382.851 1491.51 382.642 1493.14 382.081C1496.11 381.052 1497.63 380.193 1499.48 378.486C1500.93 377.154 1501.71 376.924 1504.81 376.924C1508.4 376.924 1508.99 376.262 1509 372.235C1509.01 368.23 1509.29 367.255 1510.93 365.613C1513.24 363.292 1516.18 363.012 1519.42 364.804C1521.48 365.945 1521.71 366.011 1524.49 366.21C1525.5 366.282 1526.88 366.446 1527.55 366.574C1534.32 367.864 1539.76 367.367 1541.87 365.268C1542.94 364.196 1543.3 363.35 1543.89 360.512C1544.11 359.45 1544.5 357.574 1544.76 356.343C1545.01 355.112 1545.29 353.519 1545.37 352.803C1545.56 351.24 1545.54 351.272 1546.32 351.272C1547.9 351.272 1548.58 352.195 1548.7 354.49L1548.76 355.639L1549.87 355.695C1552.44 355.825 1553.45 356.734 1553.08 358.603C1552.81 359.977 1553.19 360.419 1554.57 360.356C1555.36 360.32 1555.62 360.16 1557.26 358.663C1559.65 356.482 1561.27 356.443 1564.49 358.492C1567.85 360.632 1569.69 360.184 1572.88 356.45C1574.76 354.239 1575.7 353.617 1577.13 353.617C1578.31 353.617 1578.27 353.544 1578.17 355.5C1577.97 359.558 1578.11 360.067 1580 362.089C1580.99 363.157 1581.47 363.828 1581.79 364.635C1582.36 366.049 1581.94 365.937 1586.69 365.936L1590.6 365.936L1591.47 365.693C1591.95 365.56 1593.15 365.152 1594.14 364.787C1596.76 363.815 1597.51 363.649 1600.3 363.418C1605.74 362.968 1606.6 363.167 1607.95 365.201C1609.74 367.907 1611.54 367.705 1613.3 364.602C1615.7 360.37 1618.58 358.108 1621.54 358.148C1623.99 358.181 1624.48 358 1626.11 356.485C1627.79 354.918 1628.65 354.49 1630.11 354.49C1632.79 354.49 1633.93 350.397 1633.95 340.745C1633.95 337.15 1634.65 335.848 1637.21 334.623C1639.42 333.567 1642.61 332.724 1645.13 332.527C1646.33 332.434 1646.13 332.613 1647.92 329.979C1653.29 322.095 1655.06 321.383 1662.04 324.288C1664.3 325.229 1664.15 325.134 1664.18 325.653C1664.32 327.852 1662.67 329.467 1658.41 331.321C1655.17 332.725 1654.1 333.684 1653.5 335.728C1652.84 337.943 1654.06 338.671 1658.45 338.677C1662.03 338.682 1663.15 338.994 1663.54 340.101C1664.06 341.57 1667.06 341.123 1668.18 339.411C1668.99 338.157 1672.01 337.51 1672.01 338.589C1672.01 339.236 1673.31 340.869 1674.15 341.291C1675.33 341.877 1676.26 341.453 1676.85 340.055C1677.93 337.553 1679.77 337.069 1685.48 337.787C1688.38 338.151 1689.29 338.196 1689.45 337.983C1689.62 337.751 1689.61 335.902 1689.43 334.584C1689.26 333.291 1689.25 333.423 1689.63 332.966C1690.06 332.452 1690.4 331.753 1690.95 330.301C1692.07 327.343 1692.41 327.342 1694.99 330.293C1695.8 331.229 1695.78 331.248 1696.35 329.067C1697.36 325.235 1697.74 323.127 1697.94 320.471C1698.05 318.897 1698.2 318.247 1698.95 315.931C1699.98 312.723 1700.25 310.786 1699.73 310.272C1699.51 310.051 1696.57 309.93 1694.49 310.055L1693.3 310.128L1693.25 310.955C1693.18 312.081 1692.64 313.116 1692.11 313.116C1691.92 313.116 1691.27 312.37 1689.88 310.541C1689.17 309.606 1688.22 308.427 1687.78 307.921C1686.28 306.218 1686.19 306.034 1685.85 303.723C1685.14 298.892 1684.01 297.603 1680.36 297.421C1679.03 297.354 1679.04 297.366 1678.86 296.29C1678.49 294.035 1678 293.085 1676.35 291.4C1675.22 290.245 1675.22 290.24 1676.3 289.905C1682.51 287.984 1683.82 285.181 1681.35 279.076C1680.43 276.804 1680.19 275.945 1680.17 274.964L1680.15 274.187L1680.8 274.077C1683.02 273.699 1683.93 271.74 1683.54 268.156L1683.46 267.466L1682.98 267.307C1682.72 267.22 1682.14 267.081 1681.69 266.999C1679.62 266.615 1679.51 266.519 1679.58 265.214C1679.72 262.721 1681.69 259.376 1683.57 258.436C1685.23 257.602 1686.56 257.673 1690.03 258.78C1691.77 259.339 1692.55 259.509 1693.37 259.512C1694.06 259.513 1693.94 259.585 1694.76 258.663C1695.31 258.045 1696.2 258.352 1697.06 259.458C1697.9 260.532 1698.14 260.717 1699.62 261.44C1704.33 263.736 1705.95 263.704 1710.32 261.23C1713.61 259.367 1714.9 259.113 1719.2 259.479C1720.05 259.551 1720.12 259.473 1719.87 258.743C1719.32 257.159 1718.84 256.209 1717.73 254.556C1715.8 251.677 1715.56 251.039 1715.31 248.071C1715.13 245.87 1713.96 245.21 1709.47 244.757C1705.61 244.37 1705.03 243.067 1705.9 236.849C1706.35 233.607 1705.9 232.349 1703.86 231.137C1702.36 230.251 1701.73 229.479 1701.52 228.288C1701.01 225.415 1700.59 224.595 1698.36 222.127C1695.16 218.57 1694.7 215.298 1697.02 212.53C1699.37 209.714 1698.3 208.687 1690.63 206.373C1685.29 204.763 1685.4 204.811 1685.32 203.921C1685.11 201.462 1681.95 199.41 1679.17 199.936C1677.07 200.335 1676.17 201.592 1675.37 205.221C1674.73 208.127 1674.13 209.297 1672.99 209.879C1672.46 210.151 1672.42 210.096 1672.3 208.93C1672.13 207.374 1672.21 207.517 1671.25 207.054C1669.19 206.061 1669.01 206.123 1666.94 208.57C1663.76 212.31 1657.72 212.396 1656.01 208.726C1655.46 207.557 1655.37 206.741 1655.28 202.463C1655.2 198.46 1655.14 197.707 1654.76 196.307C1654.07 193.731 1653.99 193.004 1653.91 189.039L1653.85 185.821L1653.12 185.831C1652.71 185.837 1651.72 185.857 1650.91 185.877C1648.77 185.929 1648.5 185.757 1647.45 183.725C1646.41 181.69 1645.03 180.825 1640.52 179.39C1639.31 179.003 1637.16 178.27 1635.74 177.76C1627.02 174.619 1623.02 174.009 1618.62 175.148C1618.32 175.228 1618.04 175.294 1618.01 175.294C1617.98 175.294 1617.73 174.988 1617.45 174.616C1614.81 171.109 1608.6 171.968 1601.85 176.774L1601.57 176.972L1601.63 181.258C1601.7 185.932 1601.67 186.332 1601.16 188.6C1600.42 191.914 1600.02 192.316 1597.44 192.294C1591.56 192.242 1589.52 195.814 1590.13 205.054C1590.64 212.789 1589.88 214.422 1582 222.573C1577.34 227.384 1576.05 229.255 1574.51 233.428C1573.71 235.594 1573.7 235.642 1573.67 237.769C1573.65 239.924 1573.61 239.824 1574.68 240.784C1575.55 241.569 1575.75 242.024 1575.82 243.41C1575.97 246.541 1574.36 248.385 1568.21 252.113C1563.85 254.753 1562.28 256.076 1561.27 257.943L1560.99 258.456L1560.53 258.435C1560.28 258.423 1559.64 258.345 1559.12 258.261C1558.01 258.083 1558.07 258.048 1557.9 259.005C1557.76 259.878 1557.84 261.447 1558.13 263.145C1558.72 266.644 1558.69 266.775 1557.26 266.776C1556.46 266.777 1556.45 266.757 1556.34 265.167C1556.27 264.006 1556.07 261.905 1555.84 259.815C1555.49 256.698 1555.94 254.006 1557.43 250.274C1558.01 248.81 1558.13 248.419 1558.17 247.859C1558.34 245.131 1554.57 243.92 1550.81 245.495C1549.76 245.936 1549.81 245.99 1550.16 244.848C1550.43 243.945 1550.39 241.893 1550.07 240.738C1548.99 236.807 1546.25 236.003 1544.53 239.114L1544.26 239.608L1544.24 241.4C1544.22 243.825 1544.13 244.083 1542.71 245.676C1541.67 246.852 1541.27 247.823 1541.27 249.21C1541.27 251.011 1540.55 251.614 1537.51 252.386C1536.98 252.518 1536.14 252.77 1535.63 252.945C1534.17 253.449 1533.81 253.478 1531.92 253.252C1528.98 252.902 1528.19 253.033 1526.25 254.191C1523.77 255.673 1523.63 255.705 1519.71 255.67C1514.76 255.626 1514.38 255.768 1511.84 258.659C1508.13 262.889 1507.64 264.133 1508.76 266.489C1509.34 267.711 1509.34 267.658 1509.09 268.461C1508.72 269.648 1507.79 270.587 1505.38 272.215C1503.95 273.183 1503.14 273.801 1502.73 274.237C1502.49 274.491 1502.45 274.5 1501.58 274.5C1501.08 274.501 1499.87 274.583 1498.88 274.683C1494.78 275.098 1493.34 274.78 1490.39 272.804C1487.72 271.015 1486.9 269.96 1486.43 267.715C1485.77 264.536 1483.78 262.271 1480.93 261.451C1479.37 261.003 1478.93 260.703 1478.44 259.717C1477.95 258.748 1478.02 258.473 1478.99 257.476C1480.59 255.83 1480.94 254.159 1480.35 250.963C1479.83 248.112 1480.07 246.934 1481.47 245.578C1483.13 243.96 1483.25 243.29 1482.37 240.675L1481.85 239.149L1481.9 237.861C1481.95 236.449 1482.1 235.754 1482.85 233.266C1484.17 228.938 1484.14 227.665 1482.6 222.933C1481.34 219.046 1481.35 217.296 1482.66 214.297C1484.06 211.111 1484.13 210.84 1484.31 207.709C1484.5 204.605 1484.64 203.883 1485.73 200.529C1486.68 197.612 1486.78 197.087 1486.79 195.111L1486.79 193.459L1487.12 193.377C1490.13 192.603 1490.51 191.714 1489.42 187.918C1488.54 184.855 1488.59 184.276 1490 182.105C1491.23 180.213 1491.4 179.674 1491.98 175.845C1492.19 174.505 1492.44 172.938 1492.54 172.363C1493.29 168.12 1491.62 166.562 1488.63 168.722C1487.67 169.421 1487.59 169.446 1486.7 169.389C1485.71 169.325 1485.26 169.069 1484.65 168.209C1482.72 165.472 1481.73 164.999 1477.83 164.927C1475.19 164.879 1475.35 164.943 1475.35 163.904C1475.35 162.802 1475.5 162.328 1476.4 160.537C1478.27 156.827 1477.7 154.042 1473.6 146.791C1472.98 145.704 1472.27 144.403 1472.02 143.9C1471.76 143.397 1471.11 142.265 1470.56 141.385C1468.28 137.725 1468.31 135.868 1470.7 132.935C1472.56 130.664 1472.9 130.217 1473.35 129.414C1475.39 125.854 1476.38 121.05 1476.08 116.281C1475.83 112.296 1475.22 110.233 1473.97 109.161C1472.78 108.149 1471.36 108.184 1467.53 109.322C1463.57 110.501 1461.85 110.207 1460.42 108.106C1458.76 105.684 1459.1 103.398 1462.11 96.3904C1463.77 92.5438 1464.5 90.1428 1464.39 88.8807L1464.36 88.5605L1463.51 88.3532C1460.06 87.5084 1458.68 85.0302 1457.32 77.1906C1456.28 71.2397 1456.05 70.6801 1453.51 68.0882C1451.86 66.3979 1451.69 66.1405 1451.04 64.3384C1449.11 58.994 1444.89 58.0026 1434.71 60.5007C1430.92 61.429 1430.14 61.5913 1429.64 61.5442L1429.33 61.5143L1429.3 60.8247C1429.26 59.8672 1429.4 58.9897 1429.97 56.5954C1430.46 54.5688 1430.64 53.5174 1430.69 52.412L1430.71 51.8603L1431.12 51.8007C1431.35 51.768 1432.26 51.786 1433.14 51.8407C1434.03 51.8955 1435.06 51.943 1435.44 51.9463L1436.13 51.9523L1436.27 51.3908C1436.49 50.5861 1436.8 50.1033 1437.84 49.0007C1439.56 47.1737 1440.11 45.5373 1439.72 43.4016C1439.56 42.5295 1439.2 40.387 1438.98 39.0343C1438.39 35.3072 1437.1 33.9386 1433.79 33.5466C1433.17 33.4729 1433.17 33.4715 1433.1 31.9073C1432.91 27.7231 1432.13 26.5851 1429.79 27.1251ZM1499.72 418.076C1499.8 422.877 1500.19 423.395 1505.37 425.472C1507.77 426.44 1508.55 426.939 1510.46 428.733C1514.06 432.126 1514.52 434.299 1512.22 437.107C1509.08 440.955 1508.77 441.65 1508.78 444.916C1508.78 448.875 1509.43 450.925 1512.09 455.408C1512.83 456.653 1513.56 457.946 1513.72 458.281L1514.01 458.891L1514 461.328C1514 462.962 1513.94 464.233 1513.84 465.189C1513.57 467.599 1513.51 468.799 1513.51 471.906C1513.5 478.192 1513.84 479.932 1516.38 486.428C1518.42 491.675 1518.68 492.779 1518.85 496.901C1519.19 505.681 1518.67 507.127 1514.23 509.777C1510.41 512.053 1509.45 514.499 1510.31 519.68C1510.91 523.226 1510.81 523.553 1509.01 523.985C1507.49 524.352 1506.75 524.044 1506.07 522.768C1504.11 519.083 1500.23 519.108 1497.01 522.828C1494.03 526.273 1492.14 529.46 1492.3 530.789C1492.63 533.591 1495.05 534.433 1497.87 532.729C1499.22 531.913 1500.44 531.572 1502 531.572C1505.39 531.572 1506.15 538.011 1503.12 541.163C1501.53 542.816 1500.82 543.218 1498.79 543.62C1496.18 544.135 1494.71 544.93 1492.79 546.863C1490.33 549.349 1489.47 552.011 1490.11 555.18C1490.63 557.743 1490.41 558.269 1488.19 559.731C1485.62 561.43 1484.9 562.393 1484.03 565.315C1483.22 568.043 1482.41 568.943 1479.39 570.442C1478.28 570.992 1477.53 571.241 1475.71 571.658C1473.42 572.188 1472.16 573.018 1470.31 575.233C1468.62 577.259 1468.14 577.588 1465.6 578.489C1461.24 580.034 1460.09 581.423 1460.16 585.083C1460.23 588.642 1460.25 588.343 1460.03 588.375C1459.89 588.393 1459.63 588.223 1459.2 587.842C1457.02 585.91 1452.92 585.243 1450.2 586.378C1448.31 587.163 1447.55 587.976 1446.07 590.776C1445.6 591.68 1445.06 592.541 1444.75 592.922C1443.69 594.198 1443.6 594.333 1443.32 594.92C1442.65 596.311 1442.91 597.628 1444.17 599.315C1445.13 600.593 1445.13 600.795 1444.12 602.369C1442.58 604.77 1442.56 606.217 1444.06 608.206C1445.48 610.095 1445.45 611.016 1443.87 613.761C1442.53 616.095 1442.18 616.937 1441.74 618.987C1441.36 620.75 1440.85 621.422 1439.63 621.783C1439.48 621.828 1438.09 621.904 1436.55 621.951C1433.48 622.045 1433.41 622.055 1430.95 622.786C1428.82 623.423 1426.94 624.056 1424.69 624.895C1422.36 625.764 1421.87 625.921 1419.24 626.635C1413.81 628.113 1411.48 630.128 1410.75 634.003C1410.3 636.377 1410.21 636.433 1406.8 636.433H1404.32L1403.59 636.691C1402.57 637.053 1401.85 637.476 1400.36 638.599C1399.53 639.225 1398.67 639.777 1397.96 640.14L1396.85 640.705L1391.39 641.449L1385.93 642.193L1385.2 642.04C1384.79 641.956 1382.99 641.536 1381.2 641.107C1375.42 639.726 1373.34 639.369 1370.35 639.248L1368.92 639.191L1368.93 637.766C1368.98 632.075 1371.96 629.518 1380.97 627.422C1387.14 625.985 1390.15 625.027 1393.04 623.569C1396.03 622.064 1395.32 619.4 1390.34 613.401C1386.66 608.96 1385.09 605.898 1385.73 604.373C1386.66 602.147 1390.37 605.312 1394.09 611.496C1401.2 623.341 1404.62 623.401 1416.31 611.884C1423.52 604.779 1424.85 602.875 1426.16 597.863C1427.66 592.073 1428.77 590.742 1434.52 587.841C1438.49 585.837 1440.39 584.417 1443.22 581.313C1447.32 576.808 1449.05 573.729 1451.47 566.553C1455.08 555.878 1456.54 553.479 1462.38 548.624C1467.59 544.299 1468.55 542.693 1469.09 537.41C1469.69 531.632 1470.5 530.436 1476.63 526.326C1482.69 522.268 1483.78 520.112 1484.13 511.574C1484.37 505.755 1484.45 505.384 1486.77 499.852C1490.03 492.066 1491.12 489.047 1491.8 485.965C1492.12 484.537 1492.11 484.497 1491.54 484.497C1489.39 484.494 1488.21 483.949 1488.62 483.146C1489.03 482.328 1489.48 480.894 1489.96 478.797C1490.23 477.659 1490.65 476.096 1490.89 475.323C1491.9 472.152 1491.9 465.323 1490.89 460.839C1490.35 458.465 1490.38 457.999 1491.21 455.443C1491.97 453.097 1491.88 452.462 1490.6 451.238C1489.42 450.108 1489.26 449.707 1489.05 447.465C1488.88 445.683 1488.55 444.667 1487.52 442.801C1484.93 438.113 1484.8 436.17 1486.82 432.751C1489.19 428.75 1489.15 428.851 1489.32 425.618C1489.56 420.992 1489.92 420.484 1494.75 417.934C1496.97 416.761 1498.01 416.154 1498.84 415.549C1499.72 414.906 1499.66 414.74 1499.72 418.076ZM1475.52 543.642C1474.04 544.537 1471.13 546.951 1465.37 552.072C1463.65 553.6 1461.85 555.145 1461.38 555.504C1459.45 556.959 1458.46 558.172 1457.7 560.04C1457.08 561.54 1457.09 561.56 1458.37 561.315C1458.76 561.24 1459.51 561.177 1460.02 561.177C1465.29 561.171 1467.48 559.726 1469.11 555.185C1469.28 554.7 1469.48 554.304 1469.59 554.226C1469.7 554.153 1470.11 553.882 1470.52 553.625C1471 553.316 1471.79 552.625 1472.86 551.578C1473.75 550.709 1474.67 549.858 1474.91 549.687C1475.4 549.343 1475.44 549.234 1475.99 547.156C1476.54 545.093 1476.57 543.356 1476.08 543.342C1476.05 543.341 1475.8 543.476 1475.52 543.642Z" fill="#40A8E4"/>
<circle cx="1375.46" cy="595.896" r="2.98401" fill="white"/>
<circle cx="1375.46" cy="595.896" r="5.89432" stroke="white"/>
<path d="M1302.66 587.068H1300.19V575.062H1302.75V582.82L1308.31 575.062H1310.94V587.068H1308.38V579.022L1302.66 587.068ZM1318.22 587.284C1317.12 587.284 1316.23 586.84 1315.53 585.952V590.38H1313.25V578.374H1315.53V579.472C1316.22 578.596 1317.11 578.158 1318.22 578.158C1319.36 578.158 1320.28 578.566 1320.99 579.382C1321.71 580.186 1322.07 581.296 1322.07 582.712C1322.07 584.128 1321.71 585.244 1320.99 586.06C1320.28 586.876 1319.36 587.284 1318.22 587.284ZM1317.5 585.25C1318.16 585.25 1318.68 585.016 1319.08 584.548C1319.49 584.08 1319.69 583.468 1319.69 582.712C1319.69 581.968 1319.49 581.362 1319.08 580.894C1318.68 580.426 1318.16 580.192 1317.5 580.192C1317.12 580.192 1316.75 580.288 1316.38 580.48C1316.01 580.672 1315.73 580.906 1315.53 581.182V584.26C1315.73 584.536 1316.01 584.77 1316.38 584.962C1316.76 585.154 1317.14 585.25 1317.5 585.25ZM1332.24 587.068H1329.38L1327.07 583.72L1326.03 584.836V587.068H1323.74V578.374H1326.03V582.244L1329.32 578.374H1332.13L1328.69 582.316L1332.24 587.068ZM1333.07 590.47L1333.41 588.418C1333.63 588.514 1333.87 588.562 1334.13 588.562C1334.74 588.562 1335.15 588.352 1335.34 587.932L1335.66 587.194L1332.13 578.374H1334.58L1336.85 584.422L1339.12 578.374H1341.58L1337.5 588.49C1337.2 589.258 1336.78 589.792 1336.24 590.092C1335.7 590.404 1335.02 590.572 1334.2 590.596C1333.78 590.596 1333.41 590.554 1333.07 590.47ZM1346.51 587.068H1344.21V580.372H1341.78V578.374H1348.94V580.372H1346.51V587.068ZM1354.42 587.284C1353.08 587.284 1351.98 586.858 1351.11 586.006C1350.25 585.154 1349.82 584.056 1349.82 582.712C1349.82 581.38 1350.25 580.288 1351.11 579.436C1351.98 578.584 1353.08 578.158 1354.42 578.158C1355.96 578.158 1357.11 578.68 1357.86 579.724L1356.37 581.128C1355.95 580.504 1355.34 580.192 1354.53 580.192C1353.84 580.192 1353.27 580.426 1352.82 580.894C1352.39 581.35 1352.17 581.956 1352.17 582.712C1352.17 583.468 1352.39 584.08 1352.82 584.548C1353.27 585.016 1353.84 585.25 1354.53 585.25C1355.31 585.25 1355.92 584.938 1356.37 584.314L1357.86 585.7C1357.11 586.756 1355.96 587.284 1354.42 587.284ZM1367.85 587.068H1364.99L1362.69 583.72L1361.64 584.836V587.068H1359.36V578.374H1361.64V582.244L1364.94 578.374H1367.74L1364.31 582.316L1367.85 587.068Z" fill="white"/>
</g>
</svg>
